<mxfile host="app.diagrams.net" modified="2023-06-03T00:20:23.781Z" agent="Mozilla/5.0 (X11; Linux x86_64) AppleWebKit/537.36 (KHTML, like Gecko) Chrome/110.0.0.0 Safari/537.36" etag="Apqb2vdoiigwFmdwnX-h" version="21.3.7" type="device">
  <diagram name="Страница 1" id="drbgNIhRsIZfvvH7Flp7">
    <mxGraphModel dx="978" dy="591" grid="1" gridSize="10" guides="1" tooltips="1" connect="1" arrows="1" fold="1" page="1" pageScale="1" pageWidth="500" pageHeight="1150" math="1" shadow="0">
      <root>
        <mxCell id="0" />
        <mxCell id="1" parent="0" />
        <mxCell id="Bq6Qj0JvVO3T5PzDjr1r-33" style="edgeStyle=orthogonalEdgeStyle;rounded=0;orthogonalLoop=1;jettySize=auto;html=1;exitX=0.5;exitY=1;exitDx=0;exitDy=0;entryX=0.5;entryY=0;entryDx=0;entryDy=0;" parent="1" source="Bq6Qj0JvVO3T5PzDjr1r-2" target="Bq6Qj0JvVO3T5PzDjr1r-25" edge="1">
          <mxGeometry relative="1" as="geometry" />
        </mxCell>
        <mxCell id="Bq6Qj0JvVO3T5PzDjr1r-2" value="&lt;font style=&quot;font-size: 16px;&quot;&gt;Начало&lt;/font&gt;" style="rounded=1;whiteSpace=wrap;html=1;arcSize=50;fontSize=14;fontFamily=Times New Roman;" parent="1" vertex="1">
          <mxGeometry x="219" y="22" width="190" height="56.75" as="geometry" />
        </mxCell>
        <mxCell id="Bq6Qj0JvVO3T5PzDjr1r-18" value="&lt;font style=&quot;font-size: 16px;&quot;&gt;Конец&lt;/font&gt;" style="rounded=1;whiteSpace=wrap;html=1;arcSize=50;fontSize=14;fontFamily=Times New Roman;" parent="1" vertex="1">
          <mxGeometry x="219" y="1072" width="190" height="56.75" as="geometry" />
        </mxCell>
        <mxCell id="Bq6Qj0JvVO3T5PzDjr1r-44" style="edgeStyle=orthogonalEdgeStyle;rounded=0;orthogonalLoop=1;jettySize=auto;html=1;exitX=1;exitY=0.5;exitDx=0;exitDy=0;entryX=0.5;entryY=0;entryDx=0;entryDy=0;" parent="1" source="Bq6Qj0JvVO3T5PzDjr1r-25" target="Bq6Qj0JvVO3T5PzDjr1r-26" edge="1">
          <mxGeometry relative="1" as="geometry">
            <mxPoint x="312" y="832" as="targetPoint" />
            <Array as="points">
              <mxPoint x="454" y="164" />
              <mxPoint x="454" y="812" />
              <mxPoint x="314" y="812" />
            </Array>
          </mxGeometry>
        </mxCell>
        <mxCell id="PEugQGqrIHdJBbAijHdi-2" style="edgeStyle=orthogonalEdgeStyle;rounded=0;orthogonalLoop=1;jettySize=auto;html=1;exitX=0;exitY=0.5;exitDx=0;exitDy=0;entryX=0.5;entryY=0;entryDx=0;entryDy=0;" parent="1" source="Bq6Qj0JvVO3T5PzDjr1r-25" target="PEugQGqrIHdJBbAijHdi-1" edge="1">
          <mxGeometry relative="1" as="geometry" />
        </mxCell>
        <mxCell id="Bq6Qj0JvVO3T5PzDjr1r-25" value="&lt;font style=&quot;font-size: 16px;&quot;&gt;Страница &lt;br&gt;содержит одинаковые байты?&lt;/font&gt;" style="rhombus;whiteSpace=wrap;html=1;fontSize=14;fontFamily=Times New Roman;" parent="1" vertex="1">
          <mxGeometry x="214" y="115" width="200" height="97.5" as="geometry" />
        </mxCell>
        <mxCell id="Bq6Qj0JvVO3T5PzDjr1r-34" style="edgeStyle=orthogonalEdgeStyle;rounded=0;orthogonalLoop=1;jettySize=auto;html=1;exitX=0.5;exitY=1;exitDx=0;exitDy=0;entryX=0.5;entryY=0;entryDx=0;entryDy=0;" parent="1" source="Bq6Qj0JvVO3T5PzDjr1r-26" target="Bq6Qj0JvVO3T5PzDjr1r-27" edge="1">
          <mxGeometry relative="1" as="geometry" />
        </mxCell>
        <mxCell id="Bq6Qj0JvVO3T5PzDjr1r-26" value="&lt;span style=&quot;font-size: 16px;&quot;&gt;Освободить ресурсы&lt;/span&gt;" style="shape=process;whiteSpace=wrap;html=1;backgroundOutline=1;fontSize=14;size=0;fontFamily=Times New Roman;" parent="1" vertex="1">
          <mxGeometry x="217" y="852" width="193.5" height="65.5" as="geometry" />
        </mxCell>
        <mxCell id="Bq6Qj0JvVO3T5PzDjr1r-48" style="edgeStyle=orthogonalEdgeStyle;rounded=0;orthogonalLoop=1;jettySize=auto;html=1;exitX=0.5;exitY=1;exitDx=0;exitDy=0;entryX=0.5;entryY=0;entryDx=0;entryDy=0;" parent="1" source="Bq6Qj0JvVO3T5PzDjr1r-27" target="Bq6Qj0JvVO3T5PzDjr1r-18" edge="1">
          <mxGeometry relative="1" as="geometry" />
        </mxCell>
        <mxCell id="Bq6Qj0JvVO3T5PzDjr1r-27" value="&lt;span style=&quot;font-size: 16px;&quot;&gt;Обновить статистику&lt;/span&gt;" style="shape=process;whiteSpace=wrap;html=1;backgroundOutline=1;fontSize=14;size=0;fontFamily=Times New Roman;" parent="1" vertex="1">
          <mxGeometry x="217" y="962" width="193.5" height="65.5" as="geometry" />
        </mxCell>
        <mxCell id="Bq6Qj0JvVO3T5PzDjr1r-45" style="edgeStyle=orthogonalEdgeStyle;rounded=0;orthogonalLoop=1;jettySize=auto;html=1;exitX=0.5;exitY=1;exitDx=0;exitDy=0;entryX=0.5;entryY=0;entryDx=0;entryDy=0;" parent="1" source="Bq6Qj0JvVO3T5PzDjr1r-28" target="Bq6Qj0JvVO3T5PzDjr1r-26" edge="1">
          <mxGeometry relative="1" as="geometry">
            <Array as="points">
              <mxPoint x="171" y="812" />
              <mxPoint x="314" y="812" />
            </Array>
          </mxGeometry>
        </mxCell>
        <mxCell id="Bq6Qj0JvVO3T5PzDjr1r-28" value="&lt;span style=&quot;font-size: 16px;&quot;&gt;Скопировать данные&lt;/span&gt;" style="shape=process;whiteSpace=wrap;html=1;backgroundOutline=1;fontSize=14;size=0;fontFamily=Times New Roman;" parent="1" vertex="1">
          <mxGeometry x="74" y="712" width="193.5" height="65.5" as="geometry" />
        </mxCell>
        <mxCell id="Bq6Qj0JvVO3T5PzDjr1r-43" style="edgeStyle=orthogonalEdgeStyle;rounded=0;orthogonalLoop=1;jettySize=auto;html=1;exitX=0.5;exitY=1;exitDx=0;exitDy=0;entryX=0.5;entryY=0;entryDx=0;entryDy=0;" parent="1" source="Bq6Qj0JvVO3T5PzDjr1r-29" target="Bq6Qj0JvVO3T5PzDjr1r-28" edge="1">
          <mxGeometry relative="1" as="geometry" />
        </mxCell>
        <mxCell id="Bq6Qj0JvVO3T5PzDjr1r-29" value="&lt;span style=&quot;font-size: 16px;&quot;&gt;Выделить память под новую страницу&lt;/span&gt;" style="shape=process;whiteSpace=wrap;html=1;backgroundOutline=1;fontSize=14;size=0;fontFamily=Times New Roman;" parent="1" vertex="1">
          <mxGeometry x="74" y="602" width="193.5" height="65.5" as="geometry" />
        </mxCell>
        <mxCell id="Bq6Qj0JvVO3T5PzDjr1r-39" style="edgeStyle=orthogonalEdgeStyle;rounded=0;orthogonalLoop=1;jettySize=auto;html=1;exitX=0.5;exitY=1;exitDx=0;exitDy=0;entryX=0.5;entryY=0;entryDx=0;entryDy=0;" parent="1" source="Bq6Qj0JvVO3T5PzDjr1r-31" target="Bq6Qj0JvVO3T5PzDjr1r-29" edge="1">
          <mxGeometry relative="1" as="geometry">
            <Array as="points">
              <mxPoint x="316" y="562" />
              <mxPoint x="171" y="562" />
            </Array>
          </mxGeometry>
        </mxCell>
        <mxCell id="Bq6Qj0JvVO3T5PzDjr1r-31" value="&lt;span style=&quot;font-size: 16px;&quot;&gt;Сжать данные страницы&lt;/span&gt;" style="shape=process;whiteSpace=wrap;html=1;backgroundOutline=1;fontSize=14;size=0;fontFamily=Times New Roman;" parent="1" vertex="1">
          <mxGeometry x="219" y="462" width="193.5" height="65.5" as="geometry" />
        </mxCell>
        <mxCell id="Bq6Qj0JvVO3T5PzDjr1r-37" style="edgeStyle=orthogonalEdgeStyle;rounded=0;orthogonalLoop=1;jettySize=auto;html=1;exitX=1;exitY=0.5;exitDx=0;exitDy=0;entryX=0.5;entryY=0;entryDx=0;entryDy=0;" parent="1" source="Bq6Qj0JvVO3T5PzDjr1r-32" target="Bq6Qj0JvVO3T5PzDjr1r-31" edge="1">
          <mxGeometry relative="1" as="geometry" />
        </mxCell>
        <mxCell id="Bq6Qj0JvVO3T5PzDjr1r-38" style="edgeStyle=orthogonalEdgeStyle;rounded=0;orthogonalLoop=1;jettySize=auto;html=1;exitX=0;exitY=0.5;exitDx=0;exitDy=0;entryX=0.5;entryY=0;entryDx=0;entryDy=0;" parent="1" source="Bq6Qj0JvVO3T5PzDjr1r-32" target="Bq6Qj0JvVO3T5PzDjr1r-29" edge="1">
          <mxGeometry relative="1" as="geometry">
            <mxPoint x="134" y="542" as="targetPoint" />
            <Array as="points">
              <mxPoint x="31" y="391" />
              <mxPoint x="31" y="562" />
              <mxPoint x="171" y="562" />
            </Array>
          </mxGeometry>
        </mxCell>
        <mxCell id="Bq6Qj0JvVO3T5PzDjr1r-32" value="&lt;span style=&quot;font-size: 16px;&quot;&gt;Энтропия&lt;br&gt;меньше порогового значения?&lt;/span&gt;" style="rhombus;whiteSpace=wrap;html=1;fontSize=14;fontFamily=Times New Roman;" parent="1" vertex="1">
          <mxGeometry x="70.75" y="342" width="200" height="97.5" as="geometry" />
        </mxCell>
        <mxCell id="Bq6Qj0JvVO3T5PzDjr1r-46" value="Да" style="text;html=1;strokeColor=none;fillColor=none;align=center;verticalAlign=middle;whiteSpace=wrap;rounded=0;fontFamily=Times New Roman;fontSize=16;" parent="1" vertex="1">
          <mxGeometry x="409" y="132" width="60" height="30" as="geometry" />
        </mxCell>
        <mxCell id="Bq6Qj0JvVO3T5PzDjr1r-47" value="Да" style="text;html=1;strokeColor=none;fillColor=none;align=center;verticalAlign=middle;whiteSpace=wrap;rounded=0;fontFamily=Times New Roman;fontSize=16;" parent="1" vertex="1">
          <mxGeometry x="270.75" y="362" width="60" height="30" as="geometry" />
        </mxCell>
        <mxCell id="20fM4jC_uiivygezUQfM-1" style="edgeStyle=orthogonalEdgeStyle;rounded=0;orthogonalLoop=1;jettySize=auto;html=1;exitX=0.5;exitY=1;exitDx=0;exitDy=0;entryX=0.5;entryY=0;entryDx=0;entryDy=0;" edge="1" parent="1" source="PEugQGqrIHdJBbAijHdi-1" target="Bq6Qj0JvVO3T5PzDjr1r-32">
          <mxGeometry relative="1" as="geometry" />
        </mxCell>
        <mxCell id="PEugQGqrIHdJBbAijHdi-1" value="Вычислить информационную энтропию" style="shape=process;whiteSpace=wrap;html=1;backgroundOutline=1;fontFamily=Times New Roman;fontSize=16;" parent="1" vertex="1">
          <mxGeometry x="72.75" y="230" width="196" height="68" as="geometry" />
        </mxCell>
      </root>
    </mxGraphModel>
  </diagram>
</mxfile>
